<svg xmlns="http://www.w3.org/2000/svg" role="img" aria-label="OPTIONS" viewBox="0 0 602 98">
  <rect x="0" y="0" width="602" height="98" rx="28" fill="#18202b" stroke="#3d444d"/>
    <rect x="29" y="15" width="12" height="12" rx="2" fill="#f0f6fc"/>
    <rect x="43" y="15" width="12" height="12" rx="2" fill="#f0f6fc"/>
    <rect x="57" y="15" width="12" height="12" rx="2" fill="#f0f6fc"/>
    <rect x="15" y="29" width="12" height="12" rx="2" fill="#f0f6fc"/>
    <rect x="71" y="29" width="12" height="12" rx="2" fill="#f0f6fc"/>
    <rect x="15" y="43" width="12" height="12" rx="2" fill="#f0f6fc"/>
    <rect x="71" y="43" width="12" height="12" rx="2" fill="#f0f6fc"/>
    <rect x="15" y="57" width="12" height="12" rx="2" fill="#f0f6fc"/>
    <rect x="71" y="57" width="12" height="12" rx="2" fill="#f0f6fc"/>
    <rect x="29" y="71" width="12" height="12" rx="2" fill="#f0f6fc"/>
    <rect x="43" y="71" width="12" height="12" rx="2" fill="#f0f6fc"/>
    <rect x="57" y="71" width="12" height="12" rx="2" fill="#f0f6fc"/>
    <rect x="99" y="15" width="12" height="12" rx="2" fill="#f0f6fc"/>
    <rect x="113" y="15" width="12" height="12" rx="2" fill="#f0f6fc"/>
    <rect x="127" y="15" width="12" height="12" rx="2" fill="#f0f6fc"/>
    <rect x="141" y="15" width="12" height="12" rx="2" fill="#f0f6fc"/>
    <rect x="99" y="29" width="12" height="12" rx="2" fill="#f0f6fc"/>
    <rect x="155" y="29" width="12" height="12" rx="2" fill="#f0f6fc"/>
    <rect x="99" y="43" width="12" height="12" rx="2" fill="#f0f6fc"/>
    <rect x="155" y="43" width="12" height="12" rx="2" fill="#f0f6fc"/>
    <rect x="99" y="57" width="12" height="12" rx="2" fill="#f0f6fc"/>
    <rect x="113" y="57" width="12" height="12" rx="2" fill="#f0f6fc"/>
    <rect x="127" y="57" width="12" height="12" rx="2" fill="#f0f6fc"/>
    <rect x="141" y="57" width="12" height="12" rx="2" fill="#f0f6fc"/>
    <rect x="99" y="71" width="12" height="12" rx="2" fill="#f0f6fc"/>
    <rect x="183" y="15" width="12" height="12" rx="2" fill="#f0f6fc"/>
    <rect x="197" y="15" width="12" height="12" rx="2" fill="#f0f6fc"/>
    <rect x="211" y="15" width="12" height="12" rx="2" fill="#f0f6fc"/>
    <rect x="225" y="15" width="12" height="12" rx="2" fill="#f0f6fc"/>
    <rect x="239" y="15" width="12" height="12" rx="2" fill="#f0f6fc"/>
    <rect x="211" y="29" width="12" height="12" rx="2" fill="#f0f6fc"/>
    <rect x="211" y="43" width="12" height="12" rx="2" fill="#f0f6fc"/>
    <rect x="211" y="57" width="12" height="12" rx="2" fill="#f0f6fc"/>
    <rect x="211" y="71" width="12" height="12" rx="2" fill="#f0f6fc"/>
    <rect x="281" y="15" width="12" height="12" rx="2" fill="#f0f6fc"/>
    <rect x="295" y="15" width="12" height="12" rx="2" fill="#f0f6fc"/>
    <rect x="309" y="15" width="12" height="12" rx="2" fill="#f0f6fc"/>
    <rect x="295" y="29" width="12" height="12" rx="2" fill="#f0f6fc"/>
    <rect x="295" y="43" width="12" height="12" rx="2" fill="#f0f6fc"/>
    <rect x="295" y="57" width="12" height="12" rx="2" fill="#f0f6fc"/>
    <rect x="281" y="71" width="12" height="12" rx="2" fill="#f0f6fc"/>
    <rect x="295" y="71" width="12" height="12" rx="2" fill="#f0f6fc"/>
    <rect x="309" y="71" width="12" height="12" rx="2" fill="#f0f6fc"/>
    <rect x="365" y="15" width="12" height="12" rx="2" fill="#f0f6fc"/>
    <rect x="379" y="15" width="12" height="12" rx="2" fill="#f0f6fc"/>
    <rect x="393" y="15" width="12" height="12" rx="2" fill="#f0f6fc"/>
    <rect x="351" y="29" width="12" height="12" rx="2" fill="#f0f6fc"/>
    <rect x="407" y="29" width="12" height="12" rx="2" fill="#f0f6fc"/>
    <rect x="351" y="43" width="12" height="12" rx="2" fill="#f0f6fc"/>
    <rect x="407" y="43" width="12" height="12" rx="2" fill="#f0f6fc"/>
    <rect x="351" y="57" width="12" height="12" rx="2" fill="#f0f6fc"/>
    <rect x="407" y="57" width="12" height="12" rx="2" fill="#f0f6fc"/>
    <rect x="365" y="71" width="12" height="12" rx="2" fill="#f0f6fc"/>
    <rect x="379" y="71" width="12" height="12" rx="2" fill="#f0f6fc"/>
    <rect x="393" y="71" width="12" height="12" rx="2" fill="#f0f6fc"/>
    <rect x="435" y="15" width="12" height="12" rx="2" fill="#f0f6fc"/>
    <rect x="491" y="15" width="12" height="12" rx="2" fill="#f0f6fc"/>
    <rect x="435" y="29" width="12" height="12" rx="2" fill="#f0f6fc"/>
    <rect x="449" y="29" width="12" height="12" rx="2" fill="#f0f6fc"/>
    <rect x="491" y="29" width="12" height="12" rx="2" fill="#f0f6fc"/>
    <rect x="435" y="43" width="12" height="12" rx="2" fill="#f0f6fc"/>
    <rect x="463" y="43" width="12" height="12" rx="2" fill="#f0f6fc"/>
    <rect x="491" y="43" width="12" height="12" rx="2" fill="#f0f6fc"/>
    <rect x="435" y="57" width="12" height="12" rx="2" fill="#f0f6fc"/>
    <rect x="477" y="57" width="12" height="12" rx="2" fill="#f0f6fc"/>
    <rect x="491" y="57" width="12" height="12" rx="2" fill="#f0f6fc"/>
    <rect x="435" y="71" width="12" height="12" rx="2" fill="#f0f6fc"/>
    <rect x="491" y="71" width="12" height="12" rx="2" fill="#f0f6fc"/>
    <rect x="533" y="15" width="12" height="12" rx="2" fill="#f0f6fc"/>
    <rect x="547" y="15" width="12" height="12" rx="2" fill="#f0f6fc"/>
    <rect x="561" y="15" width="12" height="12" rx="2" fill="#f0f6fc"/>
    <rect x="575" y="15" width="12" height="12" rx="2" fill="#f0f6fc"/>
    <rect x="519" y="29" width="12" height="12" rx="2" fill="#f0f6fc"/>
    <rect x="533" y="43" width="12" height="12" rx="2" fill="#f0f6fc"/>
    <rect x="547" y="43" width="12" height="12" rx="2" fill="#f0f6fc"/>
    <rect x="561" y="43" width="12" height="12" rx="2" fill="#f0f6fc"/>
    <rect x="575" y="57" width="12" height="12" rx="2" fill="#f0f6fc"/>
    <rect x="519" y="71" width="12" height="12" rx="2" fill="#f0f6fc"/>
    <rect x="533" y="71" width="12" height="12" rx="2" fill="#f0f6fc"/>
    <rect x="547" y="71" width="12" height="12" rx="2" fill="#f0f6fc"/>
    <rect x="561" y="71" width="12" height="12" rx="2" fill="#f0f6fc"/>
</svg>
